<svg width="20" height="19" viewBox="0 0 20 19" fill="none" xmlns="http://www.w3.org/2000/svg">
<path fill-rule="evenodd" clip-rule="evenodd" d="M2.68766e-05 9.00862C2.68766e-05 4.13151 4.48603 0.163788 10 0.163788C15.514 0.163788 20 4.13151 20 9.00862C20 13.8857 15.514 17.8534 10 17.8534C8.57903 17.8534 7.20703 17.5947 5.91903 17.0839C3.65069 18.3707 0.514694 18.8143 0.379694 18.8329C0.364027 18.8352 0.348694 18.8362 0.33336 18.8362C0.20836 18.8362 0.0916936 18.7671 0.0350269 18.6547C-0.0289731 18.5289 -0.00363979 18.3766 0.0976935 18.277C0.86436 17.5239 1.39236 15.9341 1.58936 13.7927C0.548694 12.3647 2.68766e-05 10.7134 2.68766e-05 9.00862ZM4.00003 9.00862C4.00003 9.73127 4.59803 10.319 5.33336 10.319C6.06869 10.319 6.66669 9.73127 6.66669 9.00862C6.66669 8.28596 6.06869 7.69827 5.33336 7.69827C4.59803 7.69827 4.00003 8.28596 4.00003 9.00862ZM10 10.319C9.26469 10.319 8.66669 9.73127 8.66669 9.00862C8.66669 8.28596 9.26469 7.69827 10 7.69827C10.7354 7.69827 11.3334 8.28596 11.3334 9.00862C11.3334 9.73127 10.7354 10.319 10 10.319ZM13.3334 9.00862C13.3334 9.73127 13.9314 10.319 14.6667 10.319C15.402 10.319 16 9.73127 16 9.00862C16 8.28596 15.402 7.69827 14.6667 7.69827C13.9314 7.69827 13.3334 8.28596 13.3334 9.00862Z" fill="#949FB7"/>
</svg>
