<svg width="20" height="19" viewBox="0 0 20 19" fill="none" xmlns="http://www.w3.org/2000/svg">
<path d="M13.6713 14.7213L10.487 13.1008C10.1867 12.9478 10 12.6404 10 12.2984V11.1513C10.0763 11.0563 10.1567 10.9481 10.2397 10.8286C10.6527 10.2349 10.9837 9.57397 11.2243 8.86113C11.6947 8.64161 12 8.16831 12 7.63393V6.27679C12 5.95006 11.88 5.6335 11.6667 5.38617V3.5815C11.6853 3.3949 11.7587 2.28408 10.9693 1.36767C10.2847 0.572719 9.17367 0.169647 7.66667 0.169647C6.15967 0.169647 5.04867 0.572719 4.364 1.36733C3.57467 2.28374 3.648 3.3949 3.66667 3.58117V5.38583C3.45333 5.63316 3.33333 5.94972 3.33333 6.27645V7.63359C3.33333 8.0465 3.51767 8.43159 3.83233 8.68843C4.13767 9.91902 4.77667 10.8463 5 11.1438V12.2665C5 12.595 4.824 12.8963 4.541 13.0537L1.56733 14.7046C0.600333 15.2421 0 16.2715 0 17.3925V18.8304H15.3333V17.4586C15.3333 16.2918 14.6963 15.2431 13.6713 14.7213Z" fill="#949FB7"/>
<path d="M18.489 15.107L15.248 13.6787C15.1713 13.6396 15.0863 13.5443 15.0133 13.4171L17.1883 13.4154C17.1883 13.4154 17.314 13.4279 17.509 13.4279C17.8667 13.4279 18.3883 13.3865 18.8423 13.188C19.1147 13.0686 19.3173 12.8328 19.3987 12.541C19.4807 12.2465 19.4287 11.9347 19.2567 11.685C18.635 10.7845 17.184 8.4316 17.1387 6.04507C17.1377 6.00401 17.0063 1.94548 13.0687 1.91257C12.673 1.91596 12.299 1.9655 11.9447 2.05269C12.2087 2.76316 12.1843 3.39898 12.1663 3.60526V5.2111C12.3823 5.52392 12.4997 5.89544 12.4997 6.2768V7.63394C12.4997 8.28096 12.165 8.8798 11.6307 9.21569C11.3813 9.90173 11.0513 10.5426 10.6477 11.1228C10.5977 11.1951 10.5483 11.2633 10.5 11.3277V12.2981C10.5 12.4481 10.5787 12.578 10.7103 12.6449L13.8947 14.2653C15.0903 14.874 15.833 16.0971 15.833 17.458V18.8304H20V17.576C20 16.527 19.4273 15.5844 18.489 15.107Z" fill="#949FB7"/>
</svg>
