<svg width="21" height="14" viewBox="0 0 21 14" fill="none" xmlns="http://www.w3.org/2000/svg">
<path fill-rule="evenodd" clip-rule="evenodd" d="M20.5045 0.297409L20.5042 0.295019C20.4963 0.252336 20.4816 0.213409 20.4591 0.177897C20.4587 0.177555 20.4587 0.176872 20.4587 0.176531L20.4581 0.175677L20.4574 0.174824C20.4359 0.14136 20.4099 0.112677 20.3782 0.0884333C20.3742 0.0853214 20.3701 0.0827136 20.366 0.080074L20.358 0.0747747C20.3324 0.058043 20.3061 0.044043 20.2764 0.0348235C20.261 0.029492 20.2453 0.0271582 20.2294 0.0247902L20.219 0.0232138C20.2128 0.0223692 20.2069 0.0207124 20.201 0.0190565C20.1926 0.0166952 20.1842 0.0143357 20.175 0.0143357H20.1736C20.1623 0.0140451 20.1539 0.0149908 20.1458 0.0159104L20.1415 0.0163845C20.14 0.0165552 20.1385 0.0165552 20.1371 0.0165552C20.1356 0.0165552 20.1342 0.0165552 20.1326 0.0167259L20.1288 0.0169177C20.1268 0.0169585 20.1248 0.0170008 20.1227 0.0174089C20.1135 0.0187747 20.1043 0.0201406 20.0954 0.0221894L0.272449 4.11873C0.131424 4.14809 0.0235217 4.26248 0.00337535 4.40521C-0.016771 4.54795 0.0545949 4.68795 0.181961 4.75521L5.86118 7.75087L6.85723 13.2781C6.85685 13.2804 6.857 13.2828 6.85715 13.2852C6.85726 13.2871 6.85738 13.289 6.85723 13.2908C6.85381 13.3181 6.85347 13.3447 6.85689 13.3717C6.85859 13.3854 6.8603 13.3983 6.86372 13.4117C6.87157 13.4441 6.8842 13.4745 6.90128 13.5032C6.90291 13.5058 6.90376 13.5086 6.90462 13.5115C6.90555 13.5146 6.90649 13.5177 6.90845 13.5206C6.90922 13.5219 6.91038 13.523 6.91149 13.524C6.91185 13.5243 6.91221 13.5247 6.91255 13.525C6.91505 13.5287 6.9181 13.5319 6.9212 13.5352C6.9236 13.5377 6.92602 13.5403 6.92825 13.5431C6.9443 13.5629 6.96103 13.581 6.98016 13.5964C6.98158 13.5975 6.98279 13.5989 6.98401 13.6003C6.98542 13.602 6.98686 13.6036 6.98869 13.6049C6.99141 13.6069 6.99431 13.6081 6.99721 13.6094C6.99977 13.6104 7.00233 13.6115 7.00474 13.6131C7.02557 13.6268 7.04708 13.638 7.06996 13.6469L7.07946 13.6507C7.08528 13.653 7.09106 13.6554 7.09728 13.6572C7.12801 13.666 7.15977 13.6722 7.19186 13.6722H7.19289C7.19357 13.6722 7.19426 13.672 7.19495 13.6718L7.19517 13.6718L7.19699 13.6715C7.20279 13.6718 7.20859 13.6722 7.2144 13.6722C7.30899 13.6722 7.39435 13.6298 7.45752 13.5646L11.2406 11.0426L15.2016 13.6172C15.2576 13.6534 15.3224 13.6722 15.3877 13.6722C15.4235 13.6722 15.4601 13.6664 15.4952 13.6548C15.5936 13.622 15.6721 13.5462 15.708 13.4485L20.4666 0.532677C20.4984 0.481116 20.5164 0.419994 20.5164 0.354775C20.5162 0.342551 20.513 0.330977 20.5098 0.319331L20.5098 0.31932C20.5078 0.312102 20.5058 0.304855 20.5045 0.297409ZM16.5486 2.59307L8.35591 8.61716C8.34594 8.62458 8.3375 8.63334 8.32901 8.64214L8.32899 8.64217L8.3204 8.65097C8.31596 8.65507 8.31152 8.65848 8.30777 8.66292C8.3006 8.67077 8.29411 8.67863 8.28762 8.68717C8.28333 8.69288 8.27971 8.69877 8.27605 8.7047L8.27123 8.71243C8.2586 8.73292 8.24801 8.75409 8.23981 8.77663C8.23904 8.77863 8.23807 8.78042 8.2371 8.7822C8.23592 8.78436 8.23476 8.78648 8.23401 8.78892C8.23384 8.7896 8.23341 8.79012 8.23299 8.79063C8.23271 8.79096 8.23244 8.79128 8.23223 8.79166C8.23212 8.79187 8.23202 8.79209 8.23196 8.79234L7.29294 11.844L6.54889 7.71536L16.5486 2.59307ZM8.75303 9.42643L7.8222 12.501L9.20855 11.5766L10.6167 10.6379L10.2022 10.3685L8.75303 9.42643Z" fill="#949FB7"/>
</svg>
