<svg width="19" height="22" viewBox="0 0 19 22" fill="none" xmlns="http://www.w3.org/2000/svg">
<path fill-rule="evenodd" clip-rule="evenodd" d="M15.9077 11.2449C15.9077 13.6408 16.8235 15.7661 18.6305 17.5618C18.7332 17.6642 18.7705 17.815 18.7266 17.9531C18.6828 18.0915 18.5657 18.1942 18.4226 18.2187L14.7428 18.8542C14.0526 18.9736 13.4256 19.069 12.8355 19.147C12.1592 20.4742 10.83 21.3265 9.37709 21.3265C7.92456 21.3265 6.59572 20.475 5.91909 19.1485C5.32621 19.0702 4.69611 18.9744 4.00203 18.8546L0.321845 18.2191C0.178764 18.1942 0.0612739 18.0915 0.0178454 17.9534C-0.0255832 17.815 0.0116413 17.6642 0.114396 17.5618C1.83952 15.8472 2.71429 13.7219 2.71429 11.2449V7.7551C2.7298 5.30488 4.44989 3.41884 6.14787 2.63635C6.53834 2.45643 6.94936 2.32227 7.36774 2.21253V1.93878C7.36774 0.869735 8.23748 0 9.30652 0C10.3756 0 11.2453 0.869735 11.2453 1.93878V2.17608C11.7106 2.28853 12.167 2.4351 12.6001 2.63286C14.1364 3.33508 15.9243 5.09859 15.9077 7.75743V11.2449ZM9.30613 0.77551C8.66478 0.77551 8.14287 1.29743 8.14287 1.93878V2.033C8.90907 1.91047 9.6966 1.90427 10.4694 2.01361V1.93878C10.4694 1.29743 9.94748 0.77551 9.30613 0.77551ZM5.04082 8.14286H5.0385C4.82446 8.14131 4.65191 7.96682 4.65307 7.75278C4.6647 5.93731 6.10793 4.78916 6.95944 4.39714C8.45191 3.70888 10.2918 3.71004 11.7944 4.39637C11.989 4.48516 12.0747 4.7151 11.9859 4.91014C11.8967 5.1048 11.6668 5.19088 11.4717 5.10131C10.1716 4.50688 8.5756 4.50533 7.28438 5.10131C6.59921 5.41694 5.43789 6.33165 5.42897 7.75743C5.42742 7.97108 5.25409 8.14286 5.04082 8.14286ZM9.37709 20.551C10.36 20.551 11.2786 20.0621 11.8676 19.2629C11.8626 19.2633 11.8576 19.2637 11.8529 19.2644C11.7457 19.2755 11.6415 19.2846 11.5375 19.2937C11.5101 19.2961 11.4828 19.2985 11.4555 19.3009C11.421 19.3039 11.3863 19.3071 11.3515 19.3103C11.2998 19.3151 11.2482 19.3198 11.1976 19.3238C11.1603 19.3266 11.1238 19.329 11.0873 19.3314C11.0597 19.3332 11.032 19.335 11.0041 19.337C9.87807 19.4172 8.84044 19.4172 7.71362 19.335C7.69059 19.3334 7.66785 19.3319 7.64511 19.3305C7.61464 19.3285 7.58418 19.3266 7.55309 19.3242C7.51314 19.3209 7.47232 19.317 7.43147 19.3132C7.40055 19.3103 7.36962 19.3074 7.33905 19.3048C7.3224 19.3033 7.30576 19.3019 7.28911 19.3005C7.1568 19.2892 7.02409 19.2778 6.8877 19.2637H6.88731C7.47631 20.0624 8.39452 20.551 9.37709 20.551Z" fill="#949FB7"/>
</svg>
