<svg width="20" height="20" viewBox="0 0 20 20" fill="none" xmlns="http://www.w3.org/2000/svg">
<path fill-rule="evenodd" clip-rule="evenodd" d="M17.0993 7.77778H18.9704C19.5381 7.77778 20 8.23963 20 8.80741V11.1922C20 11.76 19.5381 12.2222 18.9704 12.2222H17.0993C16.7985 12.2222 16.5504 12.3878 16.4356 12.6656C16.3207 12.9433 16.3789 13.2359 16.5911 13.4485L17.9141 14.7711C18.1085 14.9659 18.2156 15.2244 18.2156 15.4993C18.2156 15.7744 18.1085 16.0333 17.9141 16.2278L16.2278 17.9141C15.8389 18.303 15.1607 18.3037 14.7711 17.9141L13.4485 16.5915C13.2726 16.4159 13.0789 16.3789 12.9478 16.3789C12.5911 16.3789 12.2219 16.6481 12.2219 17.0993V18.97C12.2219 19.5378 11.76 20 11.1922 20H8.80741C8.23963 20 7.77778 19.5378 7.77815 18.97V17.0993C7.77815 16.6485 7.40889 16.3789 7.05222 16.3789C6.92074 16.3789 6.72741 16.4156 6.55148 16.5915L5.22889 17.9141C4.83926 18.3041 4.16148 18.3033 3.77222 17.9141L2.08593 16.2278C1.89148 16.033 1.78444 15.7744 1.78444 15.4993C1.78444 15.2244 1.89148 14.9656 2.08593 14.7711L3.40889 13.4485C3.62111 13.2359 3.67963 12.9433 3.56444 12.6656C3.44926 12.3878 3.20148 12.2222 2.90074 12.2222H1.02963C0.461852 12.2222 0 11.76 0 11.1919V8.80741C0 8.23963 0.461852 7.77778 1.02963 7.77778H2.90074C3.20148 7.77778 3.44926 7.61222 3.56407 7.33444C3.67889 7.05667 3.62074 6.76407 3.40852 6.55148L2.08556 5.22889C1.89111 5.03407 1.78407 4.77556 1.78407 4.50074C1.78407 4.22556 1.89111 3.96667 2.08556 3.77222L3.77185 2.08593C4.16074 1.69704 4.83889 1.6963 5.22852 2.08593L6.55111 3.40852C6.72704 3.58407 6.92037 3.62111 7.05148 3.62111C7.40852 3.62111 7.77778 3.35185 7.77778 2.90074V1.02963C7.77778 0.461852 8.23963 0 8.80741 0H11.1926C11.7604 0 12.2222 0.461852 12.2222 1.02963V2.90074C12.2222 3.16074 12.3422 3.32741 12.4426 3.42148C12.5785 3.54852 12.7626 3.62111 12.9478 3.62111C13.0793 3.62111 13.2726 3.58444 13.4485 3.40852L14.7711 2.08593C15.1607 1.6963 15.8389 1.69704 16.2278 2.08593L17.9141 3.77222C18.1085 3.96704 18.2156 4.22556 18.2156 4.50074C18.2156 4.77556 18.1085 5.03444 17.9141 5.22889L16.5911 6.55148C16.3789 6.76407 16.3204 7.05667 16.4356 7.33444C16.5507 7.61222 16.7985 7.77778 17.0993 7.77778ZM10 12.5926C11.4293 12.5926 12.5926 11.4293 12.5926 10C12.5926 8.57074 11.4293 7.40741 10 7.40741C8.57074 7.40741 7.40741 8.57074 7.40741 10C7.40741 11.4293 8.57074 12.5926 10 12.5926Z" fill="#949FB7"/>
</svg>
